<svg xmlns="http://www.w3.org/2000/svg" version="1.1" xmlns:xlink="http://www.w3.org/1999/xlink" width="1500" height="131" viewBox="0 0 1500 131"><svg xml:space="preserve" width="1500" height="131" data-version="2" data-id="lg_kyxqTYMEgRvimLnniP" viewBox="0 0 567 131" x="0" y="0"><rect width="100%" height="100%" fill="transparent"></rect><path fill="#ba2d2d" stroke="#ba2d2d" stroke-width="5.8" d="M205.155 1.536v127.928"></path><path fill="#ba2d2d" stroke="#ba2d2d" stroke-width="1.89" d="M147.836 98.91c-3.51-4.778-7.935-8.595-12.752-11.998-2.562-1.804-5.327-3.295-7.793-5.25a260.889 260.889 0 0 0-7.993-6.08c-7.331-5.386-14.899-10.435-22.326-15.687-3.099-2.193-4.494-5.409-4.702-9.137-.089-1.614.677-2.23 2.354-2.076 1.512.142 3.01.376 4.46.838 2.597.83 5.245 1.374 7.987 1.391 1.342.008 2.622-.312 3.726-1.034a22.875 22.875 0 0 0 6.467-6.32c.04-.053-.034-.183-.08-.38-1.805 0-3.635.028-5.463-.015-.644-.015-1.062.223-1.491.67-1.188 1.237-2.675 1.988-4.313 2.427-3.321.884-6.42-.027-9.807-1.246 2.973-.293 5.885.597 8.407-1.9-2.157 0-3.969-.068-5.776.017-1.794.087-3.265 1.473-5.165 1.32 2.072 1.364 4.061 2.708 5.868 4.366-.992-.12-1.913-.536-2.858-.59-1.424-.083-2.265-.935-3.112-1.871-.208-.236-.39-.492-.595-.728-1.796-2.043-3.384-4.274-5.502-6.023-.383-.316-.705-.834-1.43-.478 1.91 2.376 3.236 5.087 4.769 7.675l-.202.269c-1.859-.127-3.326-.851-4.502-2.156a8.507 8.507 0 0 1-.765-.992c-.81-1.218-1.477-2.552-2.367-3.664-1.242-1.556-2.384-3.176-3.562-4.771-.4-.543-.913-.832-1.512-1.05-1.86-.678-3.732-1.334-5.575-2.055-2.547-.998-5.143-.709-7.74-.363-1.792.239-2.707 1.452-2.51 3.475.15 1.564.273 3.153.028 4.704-.256 1.614.017 3.147.48 4.637.849 2.736 1.815 5.435 2.762 8.142 1.072 3.063 2.229 6.122 4.072 8.79 3.82 5.53 8.186 10.632 13.31 14.995 6.013 5.127 12.199 10.05 18.261 15.122 3.532 2.957 7.04 5.957 9.986 9.53 1.314 1.59 2.48 3.25 2.223 5.509.5.038.911.092 1.325.096q5.03.076 10.058.13c1.507.018 1.59-.107 1.393-1.614-.083-.633-.32-1.206-.591-1.773-.522-1.093-1.231-2.059-1.987-3.002-2.685-3.339-6.07-5.92-9.383-8.558-7.239-5.774-14.581-11.415-21.843-17.16-2.749-2.17-5.613-4.218-8.046-6.763-2.533-2.65-4.894-5.45-7.225-8.284-1.826-2.218-3.078-4.641-3.912-7.403-.843-2.794-.472-5.377.543-7.95.682-1.724 1.974-2.27 3.77-1.731a119.102 119.102 0 0 1 4.467 1.44c1.508.524 2.994 1.114 4.492 1.673-.45.208-.855.206-1.261.208-2.655.017-3.182.469-3.999 2.993-.408 1.26-.125 2.369.388 3.47.42.904.894 1.778 1.391 2.634 2.146 3.694 4.702 7.107 8.06 9.742 10.904 8.558 22.343 16.402 33.36 24.813 3.162 2.416 6.336 4.813 9.081 7.717 2.592 2.741 5.082 5.56 5.256 9.838l11.407.002c1.458 0 1.531-.087 1.293-1.513-.44-2.644-1.756-4.9-3.304-7.017m-98.21-1.686c-1.641-3.205-3.407-6.345-4.985-9.578-2.936-6.02-5.401-12.142-6.027-18.965-.6-6.538.117-12.825 1.915-19.066.5-1.737 1.15-3.424 1.824-5.091-.81-.431-1.287.051-1.809.376-2.44 1.526-4.671 3.367-7.112 4.874a18.83 18.83 0 0 0-6.074 5.966c-.946 1.473-2.261 2.687-3 4.303.62.036 1.003-.353 1.381-.722l.15-.142.013-.011.183-.159c2.88-2.267 5.472-4.864 8.241-7.254.4-.346.74-.841 1.327-.886.316.59-.134.761-.368.975-3.504 3.161-6.564 6.738-9.702 10.247-2.161 2.417-4.333 4.852-6.92 6.822a23.064 23.064 0 0 0-4.862 5.03c-2.375 3.324-4.862 6.572-7.333 9.894.219.04.35.108.41.066a17.015 17.015 0 0 0 1.023-.722c5.454-4.065 10.036-8.993 14.19-14.341 1.955-2.515 3.889-5.044 5.832-7.566l.284.454q-2.227 3.584-4.458 7.166c-4.243 6.804-8.922 13.27-14.48 19.081a94.525 94.525 0 0 1-2.901 2.864v8.776c.555-.871 1.098-1.75 1.775-2.531 2.955-3.4 5.696-6.96 8.055-10.799 4.348-7.067 8.169-14.424 11.88-21.837 1.374-2.749 2.872-5.424 4.666-7.925l.317.225c-.525 1.081-1.106 2.14-1.563 3.246-2.584 6.265-5.276 12.485-7.466 18.909a100.197 100.197 0 0 1-4.125 10.309 10.02 10.02 0 0 0-.835 2.835c-.121.828-.23 1.656-.361 2.483-.681 4.23-2.203 8.05-5.43 11.027-.053.047-.017.195-.03.439 3.88 0 7.747-.02 11.617.018.673.004 1.055-.317 1.437-.773 1.573-1.887 2.265-4.093 2.395-6.505.147-2.677-.123-5.337-.45-7.987-.422-3.426-.82-6.783.08-10.253 1.07-4.138 1.31-8.465 2.591-12.571 1.378-4.428 2.532-8.939 4.428-13.192.84-1.881 1.77-3.72 3.019-5.43.427.702-.04 1.204-.238 1.698-1.785 4.373-2.855 8.944-3.681 13.572-.832 4.664-.603 9.397-.717 14.105-.009.31.048.63.123.93.556 2.23 1.1 4.461 1.696 6.68 1.017 3.778 2.482 7.421 3.4 11.227.697 2.89 1.15 5.787-.923 8.388-.03.04.055.168.12.355 3.632 0 7.298-.003 10.962 0 1.592 0 1.862-.211 2.251-1.724a5.2 5.2 0 0 0 .116-2.019c-.255-1.892-.993-3.62-1.851-5.291"></path><path fill="#ba2d2d" stroke="#ba2d2d" stroke-width="1.89" d="m24.33 60.075.007-.004q.008-.012.012-.025l-.046-.002zm-.03.181a.095.095 0 0 0 .05-.028q.01-.015.012-.03l.007-.016q.002-.02-.007-.045v-.004a.19.19 0 0 0-.032-.058l-.21.111c.06.027.13.087.18.07m152.198 46.465c-.253-1.554-.584-3.112-1.265-4.509-1.352-2.755-1.35-5.641-1.144-8.575.186-2.717.26-5.437.2-8.16-.02-.898-.304-1.569-.86-2.255-2.27-2.802-4.46-5.67-6.733-8.473-1.038-1.278-1.946-2.675-3.165-3.838-.321.412-.185.786-.217 1.129-.214 2.245-1.174 3.053-3.401 2.867-1.326-.111-2.536-.606-3.711-1.16-2.685-1.274-5.32-2.653-8.022-3.881-5.554-2.528-11.318-4.528-17.09-6.489-2.444-.83-4.261-2.142-4.989-4.705a1.966 1.966 0 0 0-.938-1.197c-.38-.223-.847-.382-.962-.646l6.382-13.517c-2.068 0-3.845.05-5.616-.021-.85-.038-1.301.238-1.71.983-1.686 3.057-3.442 6.072-5.17 9.103-.81 1.425-.807 1.429-2.36 1.134-1.385-.265-2.774-.497-4.149-.817-.883-.208-1.76-.204-2.648-.223-.845-.02-1.492.323-2.07 1.032 1.138 1 2.391 1.741 3.614 2.496 3.191 1.96 6.305 4.03 9.821 5.456 2.687 1.087 5.45 2.172 7.388 4.55 2.823 3.464 6.349 6.227 9.45 9.415 1.177 1.208 2.54 2.138 3.992 2.998 6.972 4.118 13.082 9.194 17.559 16.04 2.325 3.55 4.482 7.185 4.932 11.539.07.646.524.54.923.546 3.714.064 7.431.093 11.148.197.879.02.928-.305.81-1.02m-76.578-3.633c-.743-1.27-1.652-2.418-2.64-3.503-3.678-4.036-7.831-7.564-11.945-11.135-5.54-4.804-11.097-9.58-15.767-15.288-2.92-3.573-5.671-7.224-7.488-11.52-1.892-4.465-3.54-9.028-5.361-13.522-.295-.728-.407-1.503-.456-2.295a181.488 181.488 0 0 0-.465-5.628c-.253-2.747.272-5.401 1.877-7.751.135-.197.394-.376.05-.787-1.086.658-2.163 1.373-3.296 1.986-2.041 1.102-3.123 2.84-3.539 5.06a11.343 11.343 0 0 0-.124.932c-.242 2.778.092 5.538.183 8.305.081 2.568.747 4.936 1.682 7.283 1.295 3.244 2.485 6.531 3.83 9.756 1.248 2.986 2.66 5.897 4.525 8.57 3.578 5.135 7.787 9.715 12.233 14.092 3.66 3.596 7.452 7.063 10.878 10.897 1.259 1.404 2.475 2.852 3.333 4.539.546 1.062 1.04 2.178.329 3.786l11.254.002c1.796 0 2.174-.49 1.637-2.225a7.562 7.562 0 0 0-.73-1.554"></path><path fill="#ba2d2d" stroke="#ba2d2d" stroke-width="1.89" d="M73.836 100.04c-2.622-3.743-5.857-6.97-8.838-10.409-3.77-4.353-7.484-8.75-10.326-13.795C52.264 71.55 50.428 67 48.876 62.35c-.777-2.32-1.656-4.623-1.99-7.069-.65-4.717-.107-9.4.332-14.092.07-.767.728-1.353.605-2.155-.314-.023-.467.114-.632.242-2.047 1.656-3.178 3.847-3.654 6.384-.338 1.798-.569 3.617-.877 5.42-.546 3.169-.737 6.368-.25 9.538a61.252 61.252 0 0 0 5.632 17.846c2.758 5.617 6.386 10.657 10.005 15.714 1.608 2.252 3.306 4.448 4.509 6.96.786 1.638 1.242 3.32.217 5.423 4.066 0 7.834.004 11.6-.002 1.269-.002 1.512-.26 1.554-1.54.025-.751-.159-1.458-.448-2.137a16.258 16.258 0 0 0-1.643-2.841m58.87-40.684c1.462.747 2.851.412 4.165-.35 1.44-.835 2.927-1.654 3.422-3.46a686.354 686.354 0 0 1 2.696-9.63c.168-.576.07-.968-.265-1.433-.558-.778-1.176-1.24-2.216-1.1a9.453 9.453 0 0 1-2.348-.002c-.93-.104-1.363.221-1.69 1.129-1.247 3.478-2.61 6.917-3.898 10.379-.482 1.293-1.083 2.486-2.297 3.461.819.573 1.69.63 2.431 1.006M139.88 61c-.641-.025-1.272-.09-2.161.159 3.36 1.05 6.367 2.323 9.44 3.421 1.374.492 2.788.872 4.287.81 2.055-.085 3.18-1.006 3.607-3.021.076-.36.076-.734.174-1.086.15-.555.023-1.002-.337-1.45-2.066-2.561-4.106-5.142-6.276-7.868-.316.53-.337.945-.41 1.352-.276 1.542-.518 3.093-1.07 4.567-.741 1.97-2.199 2.999-4.273 3.122-.989.062-1.989.037-2.981-.006M35.255 45.165c1.6-.664 2.779-1.48 4.044-2.204-2.103-.828-2.984.54-4.044 2.204"></path><path d="M236.9 107.083v-82.6h18.53l8.26 59.12h.24l8.26-59.12h18.52v82.6h-12.27v-62.54h-.24l-9.44 62.54h-10.85l-9.44-62.54h-.24v62.54z"></path><rect width="53.81" height="82.6" x="-26.91" y="-41.3" fill="none" rx="0" ry="0" transform="translate(264.3 66.28)"></rect><path d="M300.39 107.083v-82.6h12.98v82.6z"></path><rect width="12.98" height="82.6" x="-6.49" y="-41.3" fill="none" rx="0" ry="0" transform="translate(307.38 66.28)"></rect><path d="M323.04 107.083v-82.6h19.24q10.03 0 14.63 4.67 4.6 4.66 4.6 14.33v5.08q0 12.86-8.49 16.28v.24q4.72 1.41 6.66 5.78 1.95 4.36 1.95 11.68v14.51q0 3.54.24 5.73.23 2.18 1.18 4.3h-13.22q-.71-2-.94-3.77-.24-1.77-.24-6.37v-15.11q0-5.66-1.83-7.9-1.83-2.25-6.31-2.25h-4.49v35.4zm12.98-47.2h4.72q3.9 0 5.85-2 1.94-2.01 1.94-6.73v-6.37q0-4.48-1.59-6.49t-5.02-2.01h-5.9z"></path><rect width="40.01" height="82.6" x="-20" y="-41.3" fill="none" rx="0" ry="0" transform="translate(343.55 66.28)"></rect><path d="m367.18 107.083 13.45-82.6h17.58l13.45 82.6h-12.98l-2.36-16.4v.24h-14.75l-2.36 16.16zm15.93-27.37h11.68l-5.78-40.83h-.24z"></path><rect width="44.48" height="82.6" x="-22.24" y="-41.3" fill="none" rx="0" ry="0" transform="translate(389.92 66.28)"></rect><path d="M434.79 108.263q-9.44 0-14.28-5.36-4.84-5.37-4.84-15.4v-4.72h12.28v5.66q0 8.02 6.72 8.02 3.31 0 5.02-1.94 1.71-1.95 1.71-6.32 0-5.19-2.36-9.14t-8.73-9.5q-8.03-7.08-11.21-12.8-3.19-5.73-3.19-12.92 0-9.8 4.96-15.17 4.95-5.37 14.39-5.37 9.32 0 14.1 5.37 4.78 5.37 4.78 15.4v3.42h-12.27v-4.24q0-4.25-1.65-6.2-1.65-1.95-4.84-1.95-6.49 0-6.49 7.91 0 4.48 2.42 8.38 2.42 3.89 8.79 9.44 8.14 7.08 11.21 12.86 3.07 5.78 3.07 13.57 0 10.15-5.02 15.58-5.01 5.42-14.57 5.42"></path><rect width="38.71" height="84.96" x="-19.36" y="-42.48" fill="none" rx="0" ry="0" transform="translate(435.52 66.28)"></rect><path d="M461.81 107.083v-82.6h35.4v11.8h-22.42v21.83h17.82v11.8h-17.82v25.37h22.42v11.8z"></path><rect width="35.4" height="82.6" x="-17.7" y="-41.3" fill="none" rx="0" ry="0" transform="translate(480.01 66.28)"></rect><path d="M514.79 107.083v-70.8h-13.57v-11.8h40.12v11.8h-13.57v70.8z"></path><rect width="40.12" height="82.6" x="-20.06" y="-41.3" fill="none" rx="0" ry="0" transform="translate(521.78 66.28)"></rect><path d="M547.6 107.083v-82.6h12.98v82.6z"></path><rect width="12.98" height="82.6" x="-6.49" y="-41.3" fill="none" rx="0" ry="0" transform="translate(554.59 66.28)"></rect></svg></svg>